<mxfile host="app.diagrams.net" agent="Mozilla/5.0 (Windows NT 10.0; Win64; x64) AppleWebKit/537.36 (KHTML, like Gecko) Chrome/135.0.0.0 Safari/537.36" version="26.2.13">
  <diagram id="vkK8o-hsKimOO6CbCIKc" name="第1頁">
    <mxGraphModel dx="1656" dy="667" grid="1" gridSize="10" guides="1" tooltips="1" connect="1" arrows="1" fold="1" page="1" pageScale="1" pageWidth="1169" pageHeight="827" math="0" shadow="0">
      <root>
        <mxCell id="0" />
        <mxCell id="1" parent="0" />
        <mxCell id="1qFZ0b5etKVb5s6CTwOf-1" value="&lt;font face=&quot;標楷體&quot; style=&quot;font-size: 18px;&quot;&gt;環&lt;/font&gt;&lt;div&gt;&lt;font face=&quot;標楷體&quot; style=&quot;font-size: 18px;&quot;&gt;境&lt;/font&gt;&lt;/div&gt;" style="rounded=1;whiteSpace=wrap;html=1;movable=1;resizable=1;rotatable=1;deletable=1;editable=1;locked=0;connectable=1;" parent="1" vertex="1">
          <mxGeometry x="160" y="336.79" width="60" height="177.86" as="geometry" />
        </mxCell>
        <mxCell id="iIE0ldJsGx-aEYX-XOFw-92" value="" style="rounded=1;whiteSpace=wrap;html=1;movable=1;resizable=1;rotatable=1;deletable=1;editable=1;locked=0;connectable=1;strokeWidth=1;fontFamily=標楷體;fontSize=18;fontStyle=0;strokeColor=default;gradientColor=none;" parent="1" vertex="1">
          <mxGeometry x="1010" y="341.43" width="410" height="171.43" as="geometry" />
        </mxCell>
        <mxCell id="iIE0ldJsGx-aEYX-XOFw-3" value="" style="rounded=1;whiteSpace=wrap;html=1;movable=1;resizable=1;rotatable=1;deletable=1;editable=1;locked=0;connectable=1;strokeWidth=1;fontFamily=標楷體;fontSize=18;fontStyle=0" parent="1" vertex="1">
          <mxGeometry x="260" y="270" width="660" height="276.79" as="geometry" />
        </mxCell>
        <mxCell id="iIE0ldJsGx-aEYX-XOFw-4" value="&lt;font style=&quot;font-size: 20px;&quot; color=&quot;#333333&quot;&gt;&lt;span&gt;&lt;b&gt;制定&lt;/b&gt;&lt;/span&gt;&lt;/font&gt;" style="rounded=0;whiteSpace=wrap;html=1;strokeColor=#36393d;fillColor=#cce5ff;fontFamily=標楷體;fontSize=18;fontStyle=0;align=center;verticalAlign=middle;" parent="1" vertex="1">
          <mxGeometry x="535" y="240" width="100" height="60" as="geometry" />
        </mxCell>
        <mxCell id="iIE0ldJsGx-aEYX-XOFw-24" value="&lt;font style=&quot;font-size: 20px;&quot; face=&quot;標楷體&quot;&gt;&lt;b style=&quot;&quot;&gt;驅&lt;/b&gt;&lt;/font&gt;&lt;b style=&quot;font-size: 20px; font-family: 標楷體; background-color: transparent; color: light-dark(rgb(0, 0, 0), rgb(255, 255, 255));&quot;&gt;動&lt;/b&gt;" style="text;html=1;align=center;verticalAlign=middle;whiteSpace=wrap;rounded=0;fontFamily=Helvetica;fontSize=12;fontColor=default;" parent="1" vertex="1">
          <mxGeometry x="565.6225000000001" y="383.995" width="54.375" height="30" as="geometry" />
        </mxCell>
        <mxCell id="iIE0ldJsGx-aEYX-XOFw-49" value="&lt;font style=&quot;font-size: 20px;&quot; face=&quot;標楷體&quot;&gt;&lt;b style=&quot;&quot;&gt;發&lt;/b&gt;&lt;/font&gt;&lt;b style=&quot;font-size: 20px; font-family: 標楷體; background-color: transparent; color: light-dark(rgb(0, 0, 0), rgb(255, 255, 255));&quot;&gt;展&lt;/b&gt;" style="text;html=1;align=center;verticalAlign=middle;whiteSpace=wrap;rounded=0;" parent="1" vertex="1">
          <mxGeometry x="935.0025" y="383.995" width="54.375" height="30" as="geometry" />
        </mxCell>
        <mxCell id="iIE0ldJsGx-aEYX-XOFw-93" value="&lt;font style=&quot;font-size: 20px;&quot; color=&quot;#333333&quot;&gt;數位創新&lt;/font&gt;" style="rounded=0;whiteSpace=wrap;html=1;strokeColor=#36393d;fillColor=#cce5ff;fontFamily=標楷體;fontSize=18;fontStyle=0;align=center;verticalAlign=middle;" parent="1" vertex="1">
          <mxGeometry x="1155.0039590937993" y="297.86" width="100" height="60" as="geometry" />
        </mxCell>
        <mxCell id="2Q146yOcIqqujiGekZra-31" style="edgeStyle=none;curved=1;rounded=0;orthogonalLoop=1;jettySize=auto;html=1;exitX=1;exitY=1;exitDx=0;exitDy=0;entryX=0;entryY=0.5;entryDx=0;entryDy=0;fontSize=12;startSize=8;endSize=8;" parent="1" source="iIE0ldJsGx-aEYX-XOFw-86" target="iIE0ldJsGx-aEYX-XOFw-96" edge="1">
          <mxGeometry relative="1" as="geometry" />
        </mxCell>
        <mxCell id="iIE0ldJsGx-aEYX-XOFw-73" value="&lt;font style=&quot;font-size: 20px;&quot; face=&quot;標楷體&quot;&gt;&lt;b style=&quot;&quot;&gt;產&lt;/b&gt;&lt;/font&gt;&lt;b style=&quot;font-size: 20px; font-family: 標楷體; background-color: transparent; color: light-dark(rgb(0, 0, 0), rgb(255, 255, 255));&quot;&gt;生&lt;/b&gt;" style="text;html=1;align=center;verticalAlign=middle;whiteSpace=wrap;rounded=0;fontFamily=Helvetica;fontSize=12;fontColor=default;" parent="1" vertex="1">
          <mxGeometry x="1235.6325" y="383.995" width="54.375" height="30" as="geometry" />
        </mxCell>
        <mxCell id="jCKPyfohm9eTSwGeLUaR-1" style="edgeStyle=orthogonalEdgeStyle;rounded=0;orthogonalLoop=1;jettySize=auto;html=1;exitX=1;exitY=0.5;exitDx=0;exitDy=0;" edge="1" parent="1" source="iIE0ldJsGx-aEYX-XOFw-96">
          <mxGeometry relative="1" as="geometry">
            <mxPoint x="410" y="515" as="targetPoint" />
            <Array as="points">
              <mxPoint x="1470" y="425" />
              <mxPoint x="1470" y="610" />
              <mxPoint x="410" y="610" />
              <mxPoint x="410" y="515" />
            </Array>
          </mxGeometry>
        </mxCell>
        <mxCell id="iIE0ldJsGx-aEYX-XOFw-96" value="結果" style="rounded=1;whiteSpace=wrap;html=1;fontSize=18;fontFamily=標楷體;movable=1;resizable=1;rotatable=1;deletable=1;editable=1;locked=0;connectable=1;fontStyle=0;fillColor=#fff2cc;strokeColor=#d6b656;" parent="1" vertex="1">
          <mxGeometry x="1300.0000000000002" y="395.18500000000006" width="100" height="58.93" as="geometry" />
        </mxCell>
        <mxCell id="iIE0ldJsGx-aEYX-XOFw-83" value="&lt;font style=&quot;font-size: 20px;&quot; face=&quot;標楷體&quot;&gt;&lt;b style=&quot;&quot;&gt;影響&lt;/b&gt;&lt;/font&gt;" style="text;html=1;align=center;verticalAlign=middle;whiteSpace=wrap;rounded=0;" parent="1" vertex="1">
          <mxGeometry x="935" y="570" width="54.38" height="30" as="geometry" />
        </mxCell>
        <mxCell id="iIE0ldJsGx-aEYX-XOFw-134" style="edgeStyle=orthogonalEdgeStyle;rounded=0;orthogonalLoop=1;jettySize=auto;html=1;" parent="1" source="1qFZ0b5etKVb5s6CTwOf-1" edge="1">
          <mxGeometry relative="1" as="geometry">
            <mxPoint x="310" y="425.7199999999999" as="targetPoint" />
          </mxGeometry>
        </mxCell>
        <mxCell id="1qFZ0b5etKVb5s6CTwOf-41" value="" style="rounded=1;whiteSpace=wrap;html=1;movable=1;resizable=1;rotatable=1;deletable=1;editable=1;locked=0;connectable=1;strokeWidth=1;dashed=1;dashPattern=8 8;fontFamily=標楷體;fontSize=18;fontStyle=0" parent="1" vertex="1">
          <mxGeometry x="310" y="341.43" width="240" height="170" as="geometry" />
        </mxCell>
        <mxCell id="1qFZ0b5etKVb5s6CTwOf-51" value="&lt;font color=&quot;#333333&quot;&gt;&lt;span&gt;認知&lt;/span&gt;&lt;/font&gt;" style="rounded=1;whiteSpace=wrap;html=1;strokeColor=#36393d;fillColor=#eeeeee;fontFamily=標楷體;fontSize=18;fontStyle=0" parent="1" vertex="1">
          <mxGeometry x="395.5817894774317" y="300" width="68.83" height="60" as="geometry" />
        </mxCell>
        <mxCell id="2Q146yOcIqqujiGekZra-25" value="" style="group;movable=1;resizable=1;rotatable=1;deletable=1;editable=1;locked=0;connectable=1;" parent="1" vertex="1" connectable="0">
          <mxGeometry x="329.99673510104265" y="365.72" width="200.00010875277792" height="120" as="geometry" />
        </mxCell>
        <mxCell id="1qFZ0b5etKVb5s6CTwOf-47" value="企業邏輯" style="rounded=0;whiteSpace=wrap;html=1;movable=1;resizable=1;rotatable=1;deletable=1;editable=1;locked=0;connectable=1;fontFamily=標楷體;fontSize=18;fontStyle=0" parent="2Q146yOcIqqujiGekZra-25" vertex="1">
          <mxGeometry x="100.00010875277798" y="60" width="100" height="60" as="geometry" />
        </mxCell>
        <mxCell id="2Q146yOcIqqujiGekZra-9" value="" style="group" parent="2Q146yOcIqqujiGekZra-25" vertex="1" connectable="0">
          <mxGeometry width="200.00010875277798" height="120" as="geometry" />
        </mxCell>
        <mxCell id="1qFZ0b5etKVb5s6CTwOf-43" value="&lt;span&gt;&lt;font style=&quot;font-size: 20px;&quot;&gt;制度邏輯&lt;/font&gt;&lt;/span&gt;" style="rounded=0;whiteSpace=wrap;html=1;fontSize=18;fontFamily=標楷體;movable=1;resizable=1;rotatable=1;deletable=1;editable=1;locked=0;connectable=1;fillColor=#cce5ff;strokeColor=#36393d;fontStyle=0;align=center;verticalAlign=middle;" parent="2Q146yOcIqqujiGekZra-9" vertex="1">
          <mxGeometry width="200" height="60" as="geometry" />
        </mxCell>
        <mxCell id="1qFZ0b5etKVb5s6CTwOf-48" value="產業認知" style="rounded=0;whiteSpace=wrap;html=1;movable=1;resizable=1;rotatable=1;deletable=1;editable=1;locked=0;connectable=1;fontFamily=標楷體;fontSize=18;fontStyle=0" parent="2Q146yOcIqqujiGekZra-9" vertex="1">
          <mxGeometry y="60" width="100" height="60" as="geometry" />
        </mxCell>
        <mxCell id="2Q146yOcIqqujiGekZra-30" style="edgeStyle=none;curved=1;rounded=0;orthogonalLoop=1;jettySize=auto;html=1;fontSize=12;startSize=8;endSize=8;" parent="1" target="iIE0ldJsGx-aEYX-XOFw-92" edge="1">
          <mxGeometry relative="1" as="geometry">
            <mxPoint x="860" y="426" as="sourcePoint" />
            <Array as="points" />
          </mxGeometry>
        </mxCell>
        <mxCell id="iIE0ldJsGx-aEYX-XOFw-15" value="" style="rounded=1;whiteSpace=wrap;html=1;movable=1;resizable=1;rotatable=1;deletable=1;editable=1;locked=0;connectable=1;strokeWidth=1;dashed=1;dashPattern=8 8;fontFamily=標楷體;fontSize=18;fontStyle=0;arcSize=19;" parent="1" vertex="1">
          <mxGeometry x="627.8091733218195" y="331.43" width="232.19000000000005" height="180" as="geometry" />
        </mxCell>
        <mxCell id="iIE0ldJsGx-aEYX-XOFw-16" value="&lt;font color=&quot;#333333&quot;&gt;&lt;span&gt;資源整合&lt;/span&gt;&lt;/font&gt;&lt;div&gt;&lt;font color=&quot;#333333&quot;&gt;&lt;span&gt;行動&lt;/span&gt;&lt;/font&gt;&lt;/div&gt;" style="rounded=1;whiteSpace=wrap;html=1;strokeColor=#36393d;fillColor=#eeeeee;fontFamily=標楷體;fontSize=18;fontStyle=0" parent="1" vertex="1">
          <mxGeometry x="686.51" y="300" width="114.79" height="60" as="geometry" />
        </mxCell>
        <mxCell id="2Q146yOcIqqujiGekZra-18" value="" style="group;movable=1;resizable=1;rotatable=1;deletable=1;editable=1;locked=0;connectable=1;" parent="1" vertex="1" connectable="0">
          <mxGeometry x="653.9041733218195" y="366.43" width="180" height="120" as="geometry" />
        </mxCell>
        <mxCell id="2Q146yOcIqqujiGekZra-26" value="" style="group" parent="2Q146yOcIqqujiGekZra-18" vertex="1" connectable="0">
          <mxGeometry width="180" height="120" as="geometry" />
        </mxCell>
        <mxCell id="iIE0ldJsGx-aEYX-XOFw-19" value="定位" style="rounded=0;whiteSpace=wrap;html=1;movable=1;resizable=1;rotatable=1;deletable=1;editable=1;locked=0;connectable=1;fontFamily=標楷體;fontSize=18;fontStyle=0" parent="2Q146yOcIqqujiGekZra-26" vertex="1">
          <mxGeometry x="59.99582667818049" y="60" width="60" height="60" as="geometry" />
        </mxCell>
        <mxCell id="iIE0ldJsGx-aEYX-XOFw-18" value="&lt;span&gt;&lt;font style=&quot;font-size: 20px;&quot;&gt;動態能力&lt;/font&gt;&lt;/span&gt;" style="rounded=0;whiteSpace=wrap;html=1;fontSize=18;fontFamily=標楷體;movable=1;resizable=1;rotatable=1;deletable=1;editable=1;locked=0;connectable=1;fillColor=#cce5ff;strokeColor=#36393d;fontStyle=0" parent="2Q146yOcIqqujiGekZra-26" vertex="1">
          <mxGeometry width="180" height="60" as="geometry" />
        </mxCell>
        <mxCell id="iIE0ldJsGx-aEYX-XOFw-20" value="路徑" style="rounded=0;whiteSpace=wrap;html=1;movable=1;resizable=1;rotatable=1;deletable=1;editable=1;locked=0;connectable=1;fontFamily=標楷體;fontSize=18;fontStyle=0" parent="2Q146yOcIqqujiGekZra-26" vertex="1">
          <mxGeometry y="60" width="60" height="60" as="geometry" />
        </mxCell>
        <mxCell id="iIE0ldJsGx-aEYX-XOFw-21" value="&lt;font&gt;&lt;span&gt;&lt;span&gt;流程&lt;/span&gt;&lt;/span&gt;&lt;/font&gt;" style="rounded=0;whiteSpace=wrap;html=1;movable=1;resizable=1;rotatable=1;deletable=1;editable=1;locked=0;connectable=1;fontFamily=標楷體;fontSize=18;fontStyle=0" parent="2Q146yOcIqqujiGekZra-26" vertex="1">
          <mxGeometry x="120" y="60" width="60" height="60" as="geometry" />
        </mxCell>
        <mxCell id="iIE0ldJsGx-aEYX-XOFw-115" value="" style="group;movable=1;resizable=1;rotatable=1;deletable=1;editable=1;locked=0;connectable=1;" parent="1" vertex="1" connectable="0">
          <mxGeometry x="1030.0000000000002" y="365.72" width="200" height="120" as="geometry" />
        </mxCell>
        <mxCell id="iIE0ldJsGx-aEYX-XOFw-118" value="" style="group;movable=1;resizable=1;rotatable=1;deletable=1;editable=1;locked=0;connectable=1;" parent="iIE0ldJsGx-aEYX-XOFw-115" vertex="1" connectable="0">
          <mxGeometry width="200" height="120" as="geometry" />
        </mxCell>
        <mxCell id="iIE0ldJsGx-aEYX-XOFw-86" value="&lt;span&gt;&lt;font style=&quot;font-size: 20px;&quot;&gt;科技可供性&lt;/font&gt;&lt;/span&gt;" style="rounded=0;whiteSpace=wrap;html=1;fontSize=18;fontFamily=標楷體;movable=1;resizable=1;rotatable=1;deletable=1;editable=1;locked=0;connectable=1;fillColor=#cce5ff;strokeColor=#36393d;fontStyle=0" parent="iIE0ldJsGx-aEYX-XOFw-118" vertex="1">
          <mxGeometry width="200" height="60" as="geometry" />
        </mxCell>
        <mxCell id="iIE0ldJsGx-aEYX-XOFw-87" value="&lt;font&gt;&lt;span&gt;&lt;span&gt;可供性實現&lt;/span&gt;&lt;/span&gt;&lt;/font&gt;" style="rounded=0;whiteSpace=wrap;html=1;movable=1;resizable=1;rotatable=1;deletable=1;editable=1;locked=0;connectable=1;fontFamily=標楷體;fontSize=18;fontStyle=0" parent="iIE0ldJsGx-aEYX-XOFw-118" vertex="1">
          <mxGeometry x="100" y="60" width="100" height="60" as="geometry" />
        </mxCell>
        <mxCell id="iIE0ldJsGx-aEYX-XOFw-88" value="&lt;font&gt;&lt;span&gt;技術可供性&lt;/span&gt;&lt;/font&gt;" style="rounded=0;whiteSpace=wrap;html=1;movable=1;resizable=1;rotatable=1;deletable=1;editable=1;locked=0;connectable=1;fontFamily=標楷體;fontSize=18;fontStyle=0" parent="iIE0ldJsGx-aEYX-XOFw-118" vertex="1">
          <mxGeometry y="60" width="100" height="60" as="geometry" />
        </mxCell>
        <mxCell id="2Q146yOcIqqujiGekZra-29" style="edgeStyle=none;curved=1;rounded=0;orthogonalLoop=1;jettySize=auto;html=1;exitX=1;exitY=0.5;exitDx=0;exitDy=0;entryX=0.009;entryY=0.527;entryDx=0;entryDy=0;entryPerimeter=0;fontSize=12;startSize=8;endSize=8;" parent="1" source="1qFZ0b5etKVb5s6CTwOf-41" target="iIE0ldJsGx-aEYX-XOFw-15" edge="1">
          <mxGeometry relative="1" as="geometry" />
        </mxCell>
      </root>
    </mxGraphModel>
  </diagram>
</mxfile>
